<?xml version="1.0" encoding="UTF-8"?>
<svg width="1020px" height="1023px" viewBox="0 0 1020 1023" version="1.1" xmlns="http://www.w3.org/2000/svg" xmlns:xlink="http://www.w3.org/1999/xlink">
    <!-- Generator: Sketch 51.2 (57519) - http://www.bohemiancoding.com/sketch -->
    <title>Group 12 Copy 24</title>
    <desc>Created with Sketch.</desc>
    <defs>
        <path d="M356.40318,6.84041923 C381.554699,2.78776591 406.522386,0.815753156 431.055561,0.815753156 C635.217373,0.799041183 811.76265,136.968193 854.988167,339.99359 C878.40164,449.899877 863.068405,554.800928 806.431531,652.749799 C802.437369,659.676911 798.434852,666.578956 794.507538,673.539493 C794.047959,674.383447 793.972755,675.444657 793.061953,678.962528 C799.579622,685.822792 806.907822,693.794403 814.578617,701.465199 C875.443621,762.388694 936.684644,822.944526 997.140205,884.260753 C1029.67006,917.250187 1030.50566,966.642422 1000.54945,997.693266 C967.936033,1031.47652 921.292918,1032.5043 885.8134,997.910522 C822.708992,936.385395 760.273063,874.175078 698.647664,811.19601 C683.598533,795.812639 673.429298,793.364335 653.458491,805.162988 C380.752524,966.16613 36.226856,792.578872 2.5772995,478.067907 C-21.4378049,253.509133 137.217306,42.202953 356.40318,6.84041923 Z" id="path-1"></path>
        <linearGradient x1="11.7961438%" y1="12.3161519%" x2="71.1947189%" y2="71.7763714%" id="linearGradient-3">
            <stop stop-color="#2B2890" offset="0%"></stop>
            <stop stop-color="#2F5DB0" offset="100%"></stop>
        </linearGradient>
    </defs>
    <g id="Page-1" stroke="none" stroke-width="1" fill="none" fill-rule="evenodd">
        <g id="Group-12-Copy-24" transform="translate(-2.000000, -1.000000)">
            <g id="Group-6">
                <mask id="mask-2" fill="white">
                    <use xlink:href="#path-1"></use>
                </mask>
                <g id="Clip-5"></g>
                <polygon id="Fill-4" fill="url(#linearGradient-3)" mask="url(#mask-2)" points="2.28483998 1023.73888 1021.71516 1023.73888 1021.71516 1.1092211 2.28483998 1.1092211"></polygon>
            </g>
            <g id="Group-10" transform="translate(232.896468, 239.276170)" fill="#FFC534">
                <path d="M101.905652,143.50759 C124.943106,143.50759 143.426548,125.057573 143.426548,102.078611 C143.426548,79.0411565 124.97653,60.4657991 102.05606,60.4490871 C78.9266901,60.4240192 60.3346207,78.9743086 60.3596887,102.036831 C60.3847566,124.974013 78.960114,143.515946 101.905652,143.50759 M421.154462,224.80298 L421.154462,229.465621 C419.892708,234.529348 418.029323,239.208701 414.193926,243.044098 C357.114184,300.065348 300.10129,357.136734 243.03826,414.174696 C233.646131,423.550113 220.326689,423.474909 210.917849,414.08278 C146.033616,349.231971 81.1159585,284.422942 16.3737772,219.438437 C6.0457782,209.077014 0.580963203,195.941404 0.489047354,181.37692 C0.18823185,128.600511 0.355351575,75.8241018 0.430555451,23.0476928 C0.430555451,20.4239131 0.906846666,17.6831496 1.75080128,15.1930657 C4.90100808,5.90120903 13.1567225,0.461461992 23.8189609,0.461461992 C75.5675836,0.444750019 127.299494,0.394614102 179.039761,0.494885937 C195.21695,0.519953895 209.238295,6.32736432 220.752844,17.7165736 C235.79362,32.606941 250.700699,47.6310043 265.66627,62.5965756 C313.479224,110.417885 361.292177,158.24755 409.171978,206.010367 C414.603369,211.433402 419.942844,216.756166 421.154462,224.80298" id="Fill-7"></path>
            </g>
        </g>
    </g>
</svg>