<?xml version="1.0" encoding="UTF-8"?>
<svg width="3123px" height="912px" viewBox="0 0 3123 912" version="1.1" xmlns="http://www.w3.org/2000/svg" xmlns:xlink="http://www.w3.org/1999/xlink">
    <!-- Generator: Sketch 51.2 (57519) - http://www.bohemiancoding.com/sketch -->
    <title>Group 29</title>
    <desc>Created with Sketch.</desc>
    <defs>
        <path d="M317.731868,6.09224837 C340.154336,2.48285401 362.412919,0.726530154 384.284137,0.726530154 C566.293494,0.711646054 723.682832,121.987297 762.21819,302.806791 C783.091198,400.692078 769.421687,494.119577 718.930162,581.35529 C715.369385,587.524749 711.801158,593.671883 708.299976,599.871111 C707.890263,600.622758 707.823219,601.567898 707.011242,604.701001 C712.821716,610.810924 719.354774,617.91064 726.193254,624.742442 C780.454137,679.002431 835.05024,732.934969 888.946106,787.544733 C917.946328,816.925948 918.691261,860.915907 891.985431,888.570565 C862.910715,918.658774 821.328583,919.574147 789.69875,888.764059 C733.441447,833.968243 677.780091,778.562179 622.84132,722.471446 C609.425085,708.770632 600.359257,706.590111 582.55537,717.098286 C339.439201,860.49171 32.2960828,705.890558 2.29765117,425.779229 C-19.1117088,225.781571 122.328624,37.587005 317.731868,6.09224837 Z" id="path-1"></path>
        <linearGradient x1="11.7961438%" y1="12.3161519%" x2="71.1947189%" y2="71.7763714%" id="linearGradient-3">
            <stop stop-color="#2B2890" offset="0%"></stop>
            <stop stop-color="#2F5DB0" offset="100%"></stop>
        </linearGradient>
    </defs>
    <g id="Page-1" stroke="none" stroke-width="1" fill="none" fill-rule="evenodd">
        <g id="Group-29" transform="translate(-2.000000, 0.000000)">
            <g id="Group-12-Copy-17">
                <g id="Group-6">
                    <mask id="mask-2" fill="white">
                        <use xlink:href="#path-1"></use>
                    </mask>
                    <g id="Clip-5"></g>
                    <polygon id="Fill-4" fill="#FFFFFF" mask="url(#mask-2)" points="2.0369248 911.767436 910.854571 911.767436 910.854571 0.987900039 2.0369248 0.987900039"></polygon>
                </g>
                <g id="Group-10" transform="translate(207.626177, 213.105339)" fill="url(#linearGradient-3)">
                    <path d="M90.8484407,127.811448 C111.38623,127.811448 127.864136,111.379401 127.864136,90.9137625 C127.864136,70.39603 111.416027,53.8523523 90.9825285,53.8374682 C70.362797,53.8151421 53.788049,70.3364936 53.810397,90.8765523 C53.8327449,111.30498 70.3925943,127.81889 90.8484407,127.811448 M375.45735,200.215154 L375.45735,204.367818 C374.332502,208.877701 372.671303,213.045249 369.252063,216.46115 C318.365724,267.245701 267.53898,318.074904 216.667539,368.874339 C208.294498,377.224319 196.420274,377.157341 188.032334,368.792476 C130.188326,311.034724 72.3145202,253.314183 14.5971503,195.437358 C5.38978467,186.209216 0.51792614,174.510313 0.435983565,161.538819 C0.167807866,114.53483 0.316794366,67.5308407 0.38383829,20.5268514 C0.38383829,18.1900476 0.808449814,15.7490551 1.56083164,13.5313242 C4.36922715,5.25576429 11.7291602,0.410989586 21.2344989,0.410989586 C67.3681684,0.396105486 113.486939,0.351453184 159.613159,0.440757787 C174.035053,0.463083938 186.53502,5.63530885 196.80019,15.7788233 C210.208975,29.0405568 223.49857,42.4213632 236.840311,55.7500751 C279.465349,98.3409286 322.090386,140.939224 364.775018,183.477983 C369.61708,188.307874 374.377198,193.04846 375.45735,200.215154" id="Fill-7"></path>
                </g>
            </g>
            <text id="Price-Survey" font-family="SourceSansPro-Regular, Source Sans Pro" font-size="384" font-weight="normal" fill="#FFFFFF">
                <tspan x="1062" y="592">Price</tspan>
                <tspan x="1868.4" y="592" font-family="SourceSansPro-Bold, Source Sans Pro" font-weight="bold"> Survey</tspan>
            </text>
        </g>
    </g>
</svg>